<svg version="1.1" xmlns="http://www.w3.org/2000/svg" viewBox="0 0 965.5624036979975 583.4207546251641" width="2896.6872110939926" height="1750.2622638754924">
  <!-- svg-source:excalidraw -->
  
  <defs>
    <style class="style-fonts">
      @font-face {
        font-family: "Virgil";
        src: url("https://excalidraw.com/Virgil.woff2");
      }
      @font-face {
        font-family: "Cascadia";
        src: url("https://excalidraw.com/Cascadia.woff2");
      }
      @font-face {
        font-family: "Assistant";
        src: url("https://excalidraw.com/Assistant-Regular.woff2");
      }
    </style>
    
  </defs>
  <g stroke-linecap="round" transform="translate(10.971329423556654 334.91014117606346) rotate(0 368.3281174123549 35.1869696141232)"><path d="M17.59 0 C173.81 0.78, 331.5 1.12, 719.06 0 C727.85 -0.56, 739.9 5.85, 736.66 17.59 C736.53 31.65, 734.56 38.54, 736.66 52.78 C739.6 61.85, 732.94 72.17, 719.06 70.37 C440.92 71.28, 159.03 70.9, 17.59 70.37 C5.34 66.94, 0.6 60.95, 0 52.78 C1.82 43.29, 2.82 29.97, 0 17.59 C-1.12 8.9, 5.64 0.23, 17.59 0" stroke="none" stroke-width="0" fill="#a5d8ff"></path><path d="M17.59 0 C220.03 1.75, 422.75 1.68, 719.06 0 M17.59 0 C230 0.3, 442.42 0.24, 719.06 0 M719.06 0 C730.3 0.91, 737.49 4.93, 736.66 17.59 M719.06 0 C732.79 -0.37, 734.57 4.54, 736.66 17.59 M736.66 17.59 C735 23.8, 736.47 33.73, 736.66 52.78 M736.66 17.59 C736.59 25.2, 736.41 34.45, 736.66 52.78 M736.66 52.78 C737.64 62.82, 730.94 69.77, 719.06 70.37 M736.66 52.78 C735.76 62.46, 731.31 71.7, 719.06 70.37 M719.06 70.37 C571.85 68.15, 423.01 68.68, 17.59 70.37 M719.06 70.37 C500.85 68.8, 282.41 68.88, 17.59 70.37 M17.59 70.37 C6.06 72.08, 0.31 63.74, 0 52.78 M17.59 70.37 C4.26 70.4, -2.08 64.68, 0 52.78 M0 52.78 C1.25 47.19, 0.51 38.34, 0 17.59 M0 52.78 C-0.26 42.87, 0.56 30.88, 0 17.59 M0 17.59 C-1.92 7.15, 5.61 -0.66, 17.59 0 M0 17.59 C0.73 7.69, 5.16 1.32, 17.59 0" stroke="#1971c2" stroke-width="1" fill="none"></path></g><g transform="translate(323.48889996091157 360.56257708829526) rotate(0 55.810546875 9.534533701891405)"><text x="55.810546875" y="0" font-family="Cascadia, Segoe UI Emoji" font-size="15.890889503152435px" fill="#1971c2" text-anchor="middle" style="white-space: pre;" direction="ltr" dominant-baseline="text-before-edge">Quarkus Core</text></g><g stroke-linecap="round" transform="translate(13.808988263404899 418.9353746079105) rotate(0 122.84638194624517 35.1869696141232)"><path d="M17.59 0 C66.28 -0.8, 110.66 -3.5, 228.1 0 C242.58 -0.04, 246.71 3.1, 245.69 17.59 C245.62 31.22, 242.37 43.8, 245.69 52.78 C248.15 64.09, 239.45 73.5, 228.1 70.37 C151.88 68.15, 69.3 68.7, 17.59 70.37 C2.72 70.56, 1.24 68.03, 0 52.78 C-2.13 44.44, 1.44 30.98, 0 17.59 C-1.33 3.38, 8.57 -1.43, 17.59 0" stroke="none" stroke-width="0" fill="#a5d8ff"></path><path d="M17.59 0 C98.55 2.67, 180.55 2.53, 228.1 0 M17.59 0 C92.08 1.11, 165.88 1.8, 228.1 0 M228.1 0 C238.21 -0.14, 244.82 4.05, 245.69 17.59 M228.1 0 C239.49 1.69, 244.77 4.02, 245.69 17.59 M245.69 17.59 C245.95 24.55, 243.67 32.63, 245.69 52.78 M245.69 17.59 C246.37 24.55, 246.25 31.89, 245.69 52.78 M245.69 52.78 C244.83 64.02, 239.1 71.45, 228.1 70.37 M245.69 52.78 C243.77 62.41, 238.78 68.35, 228.1 70.37 M228.1 70.37 C165.97 72.27, 103.18 72.58, 17.59 70.37 M228.1 70.37 C180.98 71.86, 132.78 71.63, 17.59 70.37 M17.59 70.37 C6.34 72.05, -0.72 66.19, 0 52.78 M17.59 70.37 C7.58 69.46, 1.1 63.45, 0 52.78 M0 52.78 C0.4 38.28, 1.48 27.8, 0 17.59 M0 52.78 C0.14 43.5, -0.96 33.33, 0 17.59 M0 17.59 C0.03 4.52, 7.6 -1.75, 17.59 0 M0 17.59 C2.15 7.79, 6.66 1.99, 17.59 0" stroke="#1971c2" stroke-width="1" fill="none"></path></g><g transform="translate(113.4009756784003 444.5878105201423) rotate(0 23.25439453125 9.534533701891405)"><text x="23.25439453125" y="0" font-family="Cascadia, Segoe UI Emoji" font-size="15.890889503152435px" fill="#1971c2" text-anchor="middle" style="white-space: pre;" direction="ltr" dominant-baseline="text-before-edge">Gizmo</text></g><g stroke-linecap="round" transform="translate(270.33334738572285 417.76977929964414) rotate(0 112.93882182597622 35.1869696141232)"><path d="M17.59 0 C86.92 3.65, 152.22 2.66, 208.28 0 C218.48 1.92, 228.51 8.52, 225.88 17.59 C228.74 27.48, 223.19 39.41, 225.88 52.78 C228.35 63.02, 221.02 71.47, 208.28 70.37 C136.06 68.31, 60.09 68.76, 17.59 70.37 C4.74 72.92, -1.98 63.87, 0 52.78 C0.45 44.39, 1.43 31.4, 0 17.59 C1.14 5.81, 4.75 -1.68, 17.59 0" stroke="none" stroke-width="0" fill="#a5d8ff"></path><path d="M17.59 0 C74.75 -0.46, 130.3 2.95, 208.28 0 M17.59 0 C81.69 2.26, 145.95 2.04, 208.28 0 M208.28 0 C220.56 -0.7, 227.4 5.84, 225.88 17.59 M208.28 0 C220.66 -1.77, 227.24 6.3, 225.88 17.59 M225.88 17.59 C223.95 25.22, 227.22 31.57, 225.88 52.78 M225.88 17.59 C225.76 27.28, 226.99 37.8, 225.88 52.78 M225.88 52.78 C225.11 64.51, 218.26 70.48, 208.28 70.37 M225.88 52.78 C226.67 66.76, 219.95 70.22, 208.28 70.37 M208.28 70.37 C147.79 71.01, 85.01 70.11, 17.59 70.37 M208.28 70.37 C136.31 70.11, 65.69 69.44, 17.59 70.37 M17.59 70.37 C5.6 71.48, -1.58 64.7, 0 52.78 M17.59 70.37 C5.5 71.93, 1.62 63.33, 0 52.78 M0 52.78 C-0.69 43, 0.28 30.49, 0 17.59 M0 52.78 C0.16 43.2, -1.09 35.16, 0 17.59 M0 17.59 C-0.35 6.17, 5.6 -0.1, 17.59 0 M0 17.59 C0.23 5.21, 3.66 0.79, 17.59 0" stroke="#1971c2" stroke-width="1" fill="none"></path></g><g transform="translate(355.36689577419884 443.42221521187594) rotate(0 27.9052734375 9.534533701891405)"><text x="27.9052734375" y="0" font-family="Cascadia, Segoe UI Emoji" font-size="15.890889503152435px" fill="#1971c2" text-anchor="middle" style="white-space: pre;" direction="ltr" dominant-baseline="text-before-edge">Jandex</text></g><g stroke-linecap="round" transform="translate(507.1952451291395 418.90484283558317) rotate(0 119.93239367557817 35.1869696141232)"><path d="M17.59 0 C92.11 0.86, 173.22 -3.25, 222.27 0 C231.68 -2.2, 242.34 4.38, 239.86 17.59 C241.37 29.95, 241.17 37.83, 239.86 52.78 C238.34 62.11, 232.88 72.92, 222.27 70.37 C170.05 72.84, 121.97 73.13, 17.59 70.37 C6.89 71.02, 1.14 64.45, 0 52.78 C-0.4 46.48, 2.31 31.64, 0 17.59 C-1.76 6.76, 4.16 -1.99, 17.59 0" stroke="none" stroke-width="0" fill="#a5d8ff"></path><path d="M17.59 0 C63.86 -0.41, 107.72 -1.93, 222.27 0 M17.59 0 C93.93 0.01, 171.8 -1.39, 222.27 0 M222.27 0 C233.89 0.55, 237.95 6.38, 239.86 17.59 M222.27 0 C235.57 -0.27, 239.63 7.86, 239.86 17.59 M239.86 17.59 C241.33 30.42, 238.95 43.94, 239.86 52.78 M239.86 17.59 C240.86 25.05, 239.81 32.77, 239.86 52.78 M239.86 52.78 C238.66 65.69, 234.78 69.88, 222.27 70.37 M239.86 52.78 C239.02 62.92, 235.73 69.46, 222.27 70.37 M222.27 70.37 C172.69 71.92, 121.14 72.74, 17.59 70.37 M222.27 70.37 C177.62 70.71, 131.29 70.25, 17.59 70.37 M17.59 70.37 C6.05 70.3, -0.66 65.97, 0 52.78 M17.59 70.37 C6.23 70.59, -1.24 65.3, 0 52.78 M0 52.78 C-2.04 39.39, -0.45 27.48, 0 17.59 M0 52.78 C-0.27 41.73, 0.36 33.18, 0 17.59 M0 17.59 C0.4 5.5, 6.44 1.68, 17.59 0 M0 17.59 C-1.26 7.16, 4.88 1.23, 17.59 0" stroke="#1971c2" stroke-width="1" fill="none"></path></g><g transform="translate(585.2697286484677 444.55727874781496) rotate(0 41.85791015625 9.534533701891405)"><text x="41.85791015625" y="0" font-family="Cascadia, Segoe UI Emoji" font-size="15.890889503152435px" fill="#1971c2" text-anchor="middle" style="white-space: pre;" direction="ltr" dominant-baseline="text-before-edge">Graal SDK</text></g><g stroke-linecap="round" transform="translate(760.5730357151201 332.8699003899437) rotate(0 95.45489220197214 79.47959132826713)"><path d="M32 0 C68.03 0.46, 98.78 -3.09, 158.91 0 C180.5 -0.54, 187.45 14.14, 190.91 32 C187.3 54.79, 185.98 81.24, 190.91 126.96 C191.55 149.24, 177.5 161.22, 158.91 158.96 C118.64 156.84, 81.59 158.56, 32 158.96 C9.02 161.13, -1.46 148.22, 0 126.96 C-0.02 94.56, 1.44 59.5, 0 32 C-1.03 13.85, 10.03 -0.12, 32 0" stroke="none" stroke-width="0" fill="#a5d8ff"></path><path d="M32 0 C67.17 -1.37, 100.08 1.55, 158.91 0 M32 0 C79 -1.11, 128.22 -1.09, 158.91 0 M158.91 0 C181.13 -0.02, 191.24 9.5, 190.91 32 M158.91 0 C178.46 2.29, 189.37 10.5, 190.91 32 M190.91 32 C191.06 55.85, 190.43 77.91, 190.91 126.96 M190.91 32 C190.65 57.52, 189.67 83.3, 190.91 126.96 M190.91 126.96 C192.57 147.9, 179.48 157.39, 158.91 158.96 M190.91 126.96 C189.22 149.29, 180.56 159.49, 158.91 158.96 M158.91 158.96 C108.25 156.64, 60.91 158.25, 32 158.96 M158.91 158.96 C110.3 160.2, 62.06 159.81, 32 158.96 M32 158.96 C9.2 159.26, -1.66 147.34, 0 126.96 M32 158.96 C8.56 159.26, -0.63 147.41, 0 126.96 M0 126.96 C-0.48 107.23, -0.03 85.33, 0 32 M0 126.96 C0.05 103.44, -0.27 81.18, 0 32 M0 32 C1.24 12.12, 11.61 -0.6, 32 0 M0 32 C-0.69 9.63, 8.45 0.24, 32 0" stroke="#1971c2" stroke-width="1" fill="none"></path></g><g transform="translate(804.8682599483423 383.74589061253664) rotate(0 51.15966796875 28.603601105674443)"><text x="51.15966796875" y="0" font-family="Cascadia, Segoe UI Emoji" font-size="15.890889503152435px" fill="#1971c2" text-anchor="middle" style="white-space: pre;" direction="ltr" dominant-baseline="text-before-edge">Arc</text><text x="51.15966796875" y="19.06906740378292" font-family="Cascadia, Segoe UI Emoji" font-size="15.890889503152435px" fill="#1971c2" text-anchor="middle" style="white-space: pre;" direction="ltr" dominant-baseline="text-before-edge">Dependency </text><text x="51.15966796875" y="38.13813480756584" font-family="Cascadia, Segoe UI Emoji" font-size="15.890889503152435px" fill="#1971c2" text-anchor="middle" style="white-space: pre;" direction="ltr" dominant-baseline="text-before-edge">Injection</text></g><g stroke-linecap="round" transform="translate(14.009240770140877 499.5500294721164) rotate(0 235.90912684813884 35.1869696141232)"><path d="M17.59 0 C157.57 4.58, 298.09 2.41, 454.22 0 C467.61 -1.82, 475.39 9.26, 471.82 17.59 C474.12 26.79, 472.73 32.16, 471.82 52.78 C471.6 63.35, 462.45 68.04, 454.22 70.37 C284.3 73.39, 118.46 70.78, 17.59 70.37 C7.57 68.22, 0.89 62.95, 0 52.78 C1.03 37.69, 2.68 25.24, 0 17.59 C1.53 7.02, 4.14 2.71, 17.59 0" stroke="none" stroke-width="0" fill="#ffc9c9"></path><path d="M17.59 0 C164.82 1.02, 311 0.49, 454.22 0 M17.59 0 C173.51 -1.26, 329.91 -1.88, 454.22 0 M454.22 0 C466.8 1.53, 470.41 5.99, 471.82 17.59 M454.22 0 C465.92 1.3, 473.52 5.38, 471.82 17.59 M471.82 17.59 C471.91 27.18, 473.74 38.6, 471.82 52.78 M471.82 17.59 C472.84 31.85, 471.35 44.4, 471.82 52.78 M471.82 52.78 C473.7 65.51, 464.1 71.48, 454.22 70.37 M471.82 52.78 C470.36 62.63, 465.65 68.93, 454.22 70.37 M454.22 70.37 C288.67 70.86, 125.85 70.56, 17.59 70.37 M454.22 70.37 C356.5 71.18, 259.59 71.23, 17.59 70.37 M17.59 70.37 C7.2 71.68, -1.48 65.59, 0 52.78 M17.59 70.37 C7.86 72.55, 1.55 64.54, 0 52.78 M0 52.78 C1.57 40.48, 0.66 32.12, 0 17.59 M0 52.78 C0.74 39.11, -0.86 26.52, 0 17.59 M0 17.59 C0.05 3.88, 6.26 1.83, 17.59 0 M0 17.59 C-1.83 6.84, 7.4 1.18, 17.59 0" stroke="#e03131" stroke-width="1" fill="none"></path></g><g transform="translate(170.85342621202972 525.2024653843482) rotate(0 79.06494140625 9.534533701891405)"><text x="79.06494140625" y="0" font-family="Cascadia, Segoe UI Emoji" font-size="15.890889503152435px" fill="#e03131" text-anchor="middle" style="white-space: pre;" direction="ltr" dominant-baseline="text-before-edge">JDK JIT - HotSpot</text></g><g stroke-linecap="round" transform="translate(10 10) rotate(0 470.31770688571237 154.6604887114852)"><path d="M32 0 C223.52 -4.82, 414.36 -5.91, 908.64 0 C933.21 1.59, 944.07 14.15, 940.64 32 C935.4 81.16, 939.7 132.33, 940.64 277.32 C943 299.02, 933.33 307.88, 908.64 309.32 C732.22 312.78, 553.92 314.72, 32 309.32 C9.53 307.64, 3.06 297.63, 0 277.32 C-0.61 218.49, -0.86 160.22, 0 32 C-0.14 9.57, 13.7 1.23, 32 0" stroke="none" stroke-width="0" fill="#a5d8ff"></path><path d="M32 0 C209.12 -1.49, 386.21 -1.31, 908.64 0 M32 0 C279.9 -2.51, 527.95 -2.3, 908.64 0 M908.64 0 C931.5 -1.71, 939.24 11.03, 940.64 32 M908.64 0 C928.5 2.26, 939.46 11.47, 940.64 32 M940.64 32 C940.93 123.96, 939.64 214.2, 940.64 277.32 M940.64 32 C938.95 114.43, 939.51 196.97, 940.64 277.32 M940.64 277.32 C941.53 299.73, 928.4 311.13, 908.64 309.32 M940.64 277.32 C941.47 299.61, 929.25 311.42, 908.64 309.32 M908.64 309.32 C696.31 309.73, 484 309.75, 32 309.32 M908.64 309.32 C700.61 312.17, 492.73 312.18, 32 309.32 M32 309.32 C10.03 307.77, 1.27 298.82, 0 277.32 M32 309.32 C8.73 307.57, -0.89 296.9, 0 277.32 M0 277.32 C0.97 186.85, 1.65 92.8, 0 32 M0 277.32 C0.34 207, 0.66 136.71, 0 32 M0 32 C1.79 9.2, 10.37 -0.08, 32 0 M0 32 C0.78 11.62, 12.03 -0.95, 32 0" stroke="#1971c2" stroke-width="1" fill="none"></path></g><g stroke-linecap="round" transform="translate(498.89688900919055 503.04681539691774) rotate(0 228.3327573444035 35.1869696141232)"><path d="M17.59 0 C143.5 -2.56, 269.8 -1.52, 439.07 0 C452.95 1.09, 454.83 5.87, 456.67 17.59 C456.79 28.46, 459.93 38.6, 456.67 52.78 C457.92 67.35, 453.8 73.75, 439.07 70.37 C282.38 68.78, 124.62 69.52, 17.59 70.37 C6.77 70.87, 1.67 63.52, 0 52.78 C-3.12 47.57, -2.88 40.21, 0 17.59 C1.51 8.77, 8.99 2.01, 17.59 0" stroke="none" stroke-width="0" fill="#ffc9c9"></path><path d="M17.59 0 C184.62 0.3, 351.89 -0.59, 439.07 0 M17.59 0 C150.43 2.1, 283.75 1.42, 439.07 0 M439.07 0 C452.3 0.12, 457.58 7.44, 456.67 17.59 M439.07 0 C449.84 -1.49, 455.28 7.51, 456.67 17.59 M456.67 17.59 C458.68 31.92, 457.26 42.7, 456.67 52.78 M456.67 17.59 C456.25 31.85, 457.34 45.54, 456.67 52.78 M456.67 52.78 C455.15 64.28, 451.02 70.73, 439.07 70.37 M456.67 52.78 C455.76 66.15, 450.28 70.16, 439.07 70.37 M439.07 70.37 C342.53 71.66, 243.85 71.8, 17.59 70.37 M439.07 70.37 C291.32 69.71, 144.31 69.64, 17.59 70.37 M17.59 70.37 C5.99 71.27, -0.93 63.89, 0 52.78 M17.59 70.37 C5.52 70.36, -1.11 65.67, 0 52.78 M0 52.78 C-1.14 40.72, 0 28.03, 0 17.59 M0 52.78 C-0.05 39.18, -1.03 25.61, 0 17.59 M0 17.59 C-1.92 4.68, 6.82 -0.91, 17.59 0 M0 17.59 C1.25 6.74, 5.65 -2, 17.59 0" stroke="#e03131" stroke-width="1" fill="none"></path></g><g transform="translate(550.4962479160936 528.6992513091495) rotate(0 176.7333984375 9.534533701891405)"><text x="176.7333984375" y="0" font-family="Cascadia, Segoe UI Emoji" font-size="15.890889503152435px" fill="#e03131" text-anchor="middle" style="white-space: pre;" direction="ltr" dominant-baseline="text-before-edge">AoT Compilation - GraalVM Native Image</text></g><g stroke-linecap="round" transform="translate(-31.448976252268494 121.89714959362709) rotate(270.0000000000001 122.84638194624517 35.1869696141232)"><path d="M17.59 0 C78.1 2.13, 139.39 -0.05, 228.1 0 C242.08 0.08, 248.97 4.24, 245.69 17.59 C244.37 33.11, 245.78 40.57, 245.69 52.78 C245.8 61.95, 238.21 70.44, 228.1 70.37 C148.62 73.54, 74.08 73.05, 17.59 70.37 C6.7 73.91, -2.96 64.24, 0 52.78 C-1.83 43.51, 2.39 26.06, 0 17.59 C-3.37 3.7, 3.55 3.02, 17.59 0" stroke="none" stroke-width="0" fill="#a5d8ff"></path><path d="M17.59 0 C66.08 -0.18, 117.42 0.93, 228.1 0 M17.59 0 C81.21 -0.8, 144.81 -0.66, 228.1 0 M228.1 0 C240.49 1.95, 244.24 4.05, 245.69 17.59 M228.1 0 C238.07 1.19, 243.77 6.18, 245.69 17.59 M245.69 17.59 C246.01 27.4, 246.18 39.69, 245.69 52.78 M245.69 17.59 C245.92 27.5, 245.29 36.15, 245.69 52.78 M245.69 52.78 C246.43 64.97, 239.65 72.29, 228.1 70.37 M245.69 52.78 C244.13 65.19, 239.28 70.67, 228.1 70.37 M228.1 70.37 C176.89 71.85, 128.36 70.51, 17.59 70.37 M228.1 70.37 C178.91 71.88, 130.31 70.62, 17.59 70.37 M17.59 70.37 C6.01 71.23, 1.57 66.24, 0 52.78 M17.59 70.37 C3.65 72.21, -0.24 65.49, 0 52.78 M0 52.78 C-0.83 41.16, 1.66 29.53, 0 17.59 M0 52.78 C-0.06 39.55, 0.63 26.1, 0 17.59 M0 17.59 C-1.22 4.61, 5.28 0.47, 17.59 0 M0 17.59 C1.41 4.72, 7.65 2.29, 17.59 0" stroke="#1971c2" stroke-width="1" fill="none"></path></g><g transform="translate(54.19037444397691 147.5495855058589) rotate(270.0000000000001 37.20703125 9.534533701891405)"><text x="37.20703125" y="0" font-family="Cascadia, Segoe UI Emoji" font-size="15.890889503152435px" fill="#1971c2" text-anchor="middle" style="white-space: pre;" direction="ltr" dominant-baseline="text-before-edge">RESTEasy</text></g><g stroke-linecap="round" transform="translate(65.2954343338888 123.06274490189344) rotate(270.0000000000001 122.84638194624517 35.1869696141232)"><path d="M17.59 0 C90.61 -3.53, 169.26 -1.7, 228.1 0 C241.26 -3.47, 247.9 7.78, 245.69 17.59 C247.55 30.99, 246.94 41.11, 245.69 52.78 C244.06 66.39, 239.87 67.57, 228.1 70.37 C152.98 67.11, 78.72 68.56, 17.59 70.37 C9.38 73.62, -2.88 66.73, 0 52.78 C-2.14 39.64, -1.36 31.94, 0 17.59 C-1.78 7.72, 3.36 -3.02, 17.59 0" stroke="none" stroke-width="0" fill="#a5d8ff"></path><path d="M17.59 0 C70.35 -2.21, 120.41 -1.03, 228.1 0 M17.59 0 C91.74 1.59, 167.53 2.19, 228.1 0 M228.1 0 C239.67 -1.98, 246.8 7.46, 245.69 17.59 M228.1 0 C239.59 -0.37, 246.16 4.88, 245.69 17.59 M245.69 17.59 C246.58 29.23, 247.86 38.27, 245.69 52.78 M245.69 17.59 C246.44 25.33, 244.71 33.24, 245.69 52.78 M245.69 52.78 C244.58 65.98, 240.46 71.46, 228.1 70.37 M245.69 52.78 C247.64 63.18, 240.42 68.24, 228.1 70.37 M228.1 70.37 C145.36 68.72, 61.12 70.76, 17.59 70.37 M228.1 70.37 C164.65 72.83, 102.43 71.33, 17.59 70.37 M17.59 70.37 C5.83 70.18, 0.06 63.18, 0 52.78 M17.59 70.37 C5.31 72.66, -2.2 64.86, 0 52.78 M0 52.78 C1.65 42.51, 1.87 30.91, 0 17.59 M0 52.78 C0.47 43.94, -0.22 34.79, 0 17.59 M0 17.59 C-1.45 6.18, 5.95 -0.63, 17.59 0 M0 17.59 C0.35 6.72, 5.44 0.83, 17.59 0" stroke="#1971c2" stroke-width="1" fill="none"></path></g><g transform="translate(164.8874217488842 148.71518081412523) rotate(270.0000000000001 23.25439453125 9.534533701891405)"><text x="23.25439453125" y="0" font-family="Cascadia, Segoe UI Emoji" font-size="15.890889503152435px" fill="#1971c2" text-anchor="middle" style="white-space: pre;" direction="ltr" dominant-baseline="text-before-edge">Netty</text></g><g stroke-linecap="round" transform="translate(165.53663084484515 121.70288370891467) rotate(270.0000000000001 122.8463819462454 35.1869696141232)"><path d="M17.59 0 C62.68 2.96, 108.3 -0.23, 228.1 0 C238.52 -0.44, 242.68 6.87, 245.69 17.59 C246.75 29.49, 248.3 45.26, 245.69 52.78 C247.85 65.02, 237.22 72.58, 228.1 70.37 C161.44 72.52, 99.42 72.7, 17.59 70.37 C2.74 68.6, 0.43 65.55, 0 52.78 C3.18 39.93, 1.14 34.62, 0 17.59 C0.38 5.74, 7.89 2.47, 17.59 0" stroke="none" stroke-width="0" fill="#a5d8ff"></path><path d="M17.59 0 C70.28 0.61, 120.57 0.66, 228.1 0 M17.59 0 C76.13 -1.87, 134.98 -1.91, 228.1 0 M228.1 0 C240.76 1.28, 245.39 6.26, 245.69 17.59 M228.1 0 C238.31 1.96, 246.63 4.02, 245.69 17.59 M245.69 17.59 C247.14 23.56, 246.43 32.42, 245.69 52.78 M245.69 17.59 C246.66 31.18, 246.3 44.12, 245.69 52.78 M245.69 52.78 C246.09 66.49, 239.67 69.11, 228.1 70.37 M245.69 52.78 C246.46 63.14, 241.78 68.17, 228.1 70.37 M228.1 70.37 C177.23 70.15, 125.71 70.88, 17.59 70.37 M228.1 70.37 C145.5 72.58, 63.05 71.58, 17.59 70.37 M17.59 70.37 C4.18 69.11, 0 64.25, 0 52.78 M17.59 70.37 C5.89 69.91, -0.33 64.77, 0 52.78 M0 52.78 C0.15 41.2, -1.51 28.23, 0 17.59 M0 52.78 C-0.97 40.83, 0.1 28.09, 0 17.59 M0 17.59 C1.59 6.8, 7.04 0.78, 17.59 0 M0 17.59 C0.83 4.17, 4.37 1.74, 17.59 0" stroke="#1971c2" stroke-width="1" fill="none"></path></g><g transform="translate(251.17598154109055 147.35531962114646) rotate(270.0000000000001 37.20703124999977 9.534533701891405)"><text x="37.20703125" y="0" font-family="Cascadia, Segoe UI Emoji" font-size="15.890889503152435px" fill="#1971c2" text-anchor="middle" style="white-space: pre;" direction="ltr" dominant-baseline="text-before-edge">Hibenate</text></g><g stroke-linecap="round" transform="translate(259.9498508144684 121.89714959362618) rotate(270.0000000000001 122.8463819462454 35.1869696141232)"><path d="M17.59 0 C64.8 0.24, 115.36 3.03, 228.1 0 C238.1 -2.57, 244.57 9.19, 245.69 17.59 C244.15 33.75, 245.05 43.48, 245.69 52.78 C244.77 61.9, 237.47 68.64, 228.1 70.37 C148.81 70.88, 62.18 75.5, 17.59 70.37 C5.05 68.85, 3.3 66.09, 0 52.78 C-2.85 43.41, 2.82 37.13, 0 17.59 C0.93 7.73, 2.49 3.39, 17.59 0" stroke="none" stroke-width="0" fill="#a5d8ff"></path><path d="M17.59 0 C69.14 2.11, 123.43 0.08, 228.1 0 M17.59 0 C71.32 1.07, 126.33 0.09, 228.1 0 M228.1 0 C240.52 1.35, 247.07 7.74, 245.69 17.59 M228.1 0 C238.58 0.53, 246.17 7.83, 245.69 17.59 M245.69 17.59 C246.86 31.3, 244.15 46.41, 245.69 52.78 M245.69 17.59 C245.46 27.19, 245.65 36.48, 245.69 52.78 M245.69 52.78 C246.47 64.38, 241.06 71.59, 228.1 70.37 M245.69 52.78 C247.78 64.9, 239.46 70.61, 228.1 70.37 M228.1 70.37 C177.65 71.61, 126.25 70.19, 17.59 70.37 M228.1 70.37 C156.87 71.65, 86.72 71.74, 17.59 70.37 M17.59 70.37 C5.02 69.33, -0.79 64.71, 0 52.78 M17.59 70.37 C3.78 68.32, -1.53 65.66, 0 52.78 M0 52.78 C-1.83 41.28, 1.11 29.1, 0 17.59 M0 52.78 C-0.55 39.47, -0.02 27.52, 0 17.59 M0 17.59 C0.46 4.55, 6.16 -0.51, 17.59 0 M0 17.59 C-1.76 6.16, 4.05 0.67, 17.59 0" stroke="#1971c2" stroke-width="1" fill="none"></path></g><g transform="translate(299.0804124482138 147.54958550585798) rotate(270.0000000000001 83.71582031249977 9.534533701891405)"><text x="83.7158203125" y="0" font-family="Cascadia, Segoe UI Emoji" font-size="15.890889503152435px" fill="#1971c2" text-anchor="middle" style="white-space: pre;" direction="ltr" dominant-baseline="text-before-edge">Spring Compability</text></g><g stroke-linecap="round" transform="translate(351.44908251342304 122.86847901718193) rotate(270.0000000000001 122.8463819462454 35.1869696141232)"><path d="M17.59 0 C70.09 4.05, 127.72 4.24, 228.1 0 C238.26 2.97, 244.01 7.77, 245.69 17.59 C244.62 27.96, 243.14 36.58, 245.69 52.78 C246.77 67, 242.7 73.17, 228.1 70.37 C178.09 71.09, 131.5 73.62, 17.59 70.37 C6.82 66.99, 1.56 63.93, 0 52.78 C3.74 40.74, -0.24 30.93, 0 17.59 C-2.72 7.25, 9.34 3.11, 17.59 0" stroke="none" stroke-width="0" fill="#a5d8ff"></path><path d="M17.59 0 C91.23 -1.18, 161.35 -1.26, 228.1 0 M17.59 0 C76 0.92, 131.89 1.34, 228.1 0 M228.1 0 C239.58 -1.35, 245.02 3.87, 245.69 17.59 M228.1 0 C240.38 -1.68, 247.02 4.18, 245.69 17.59 M245.69 17.59 C244.41 29.93, 245.02 43.41, 245.69 52.78 M245.69 17.59 C246.48 30.16, 245.01 42.32, 245.69 52.78 M245.69 52.78 C245.03 65.93, 238.5 71.23, 228.1 70.37 M245.69 52.78 C247.52 65.05, 239.28 72.2, 228.1 70.37 M228.1 70.37 C147.05 69.46, 64.64 69.83, 17.59 70.37 M228.1 70.37 C159.24 69.91, 89.17 69.62, 17.59 70.37 M17.59 70.37 C6.69 69.91, -0.07 63.31, 0 52.78 M17.59 70.37 C3.89 70.09, -0.65 62.39, 0 52.78 M0 52.78 C0.07 40.47, 0.52 30.25, 0 17.59 M0 52.78 C0.02 40.64, 0.64 28.16, 0 17.59 M0 17.59 C1.12 7.47, 4.59 1.78, 17.59 0 M0 17.59 C2.04 6.78, 6.53 0.27, 17.59 0" stroke="#1971c2" stroke-width="1" fill="none"></path></g><g transform="translate(427.786675397168 148.52091492941372) rotate(270.0000000000001 46.5087890625 9.534533701891405)"><text x="46.5087890625" y="0" font-family="Cascadia, Segoe UI Emoji" font-size="15.890889503152435px" fill="#1971c2" text-anchor="middle" style="white-space: pre;" direction="ltr" dominant-baseline="text-before-edge">MP OpenAPI</text></g><g stroke-linecap="round" transform="translate(448.77629075371397 125.3939355184275) rotate(270.0000000000001 122.8463819462454 35.1869696141232)"><path d="M17.59 0 C62.39 5.86, 105.06 5.54, 228.1 0 C240.82 -1.27, 248.2 5.43, 245.69 17.59 C245.7 28.29, 244.38 39.14, 245.69 52.78 C248.19 66.77, 239.87 67.01, 228.1 70.37 C147.43 73.72, 69.43 69, 17.59 70.37 C3.08 70.56, -2.13 64.44, 0 52.78 C0.67 40.56, 2.64 30.37, 0 17.59 C-2.14 6.21, 7.93 1.39, 17.59 0" stroke="none" stroke-width="0" fill="#a5d8ff"></path><path d="M17.59 0 C76.47 -0.14, 134.67 -1.45, 228.1 0 M17.59 0 C94.04 -0.84, 169.27 -0.87, 228.1 0 M228.1 0 C240.59 1.84, 245.02 6.82, 245.69 17.59 M228.1 0 C239.93 1.24, 244.72 6.02, 245.69 17.59 M245.69 17.59 C247.06 32.28, 247.18 43.71, 245.69 52.78 M245.69 17.59 C245.12 27.77, 245.87 37.32, 245.69 52.78 M245.69 52.78 C244.31 66.34, 239.87 69.55, 228.1 70.37 M245.69 52.78 C243.9 65.88, 239.94 68.13, 228.1 70.37 M228.1 70.37 C180.47 72.05, 135.17 72.62, 17.59 70.37 M228.1 70.37 C162.52 71.32, 95.5 72.15, 17.59 70.37 M17.59 70.37 C7.65 70.48, -0.75 65.75, 0 52.78 M17.59 70.37 C7.41 68.79, -0.1 65.99, 0 52.78 M0 52.78 C0.36 40.71, -0.52 30.5, 0 17.59 M0 52.78 C0.1 42.16, 1.1 30.14, 0 17.59 M0 17.59 C1.18 4.28, 5.18 0.37, 17.59 0 M0 17.59 C-0.28 4.63, 5.05 0.75, 17.59 0" stroke="#1971c2" stroke-width="1" fill="none"></path></g><g transform="translate(543.7173992624589 151.0463714306593) rotate(270.0000000000001 27.9052734375 9.534533701891405)"><text x="27.9052734375" y="0" font-family="Cascadia, Segoe UI Emoji" font-size="15.890889503152435px" fill="#1971c2" text-anchor="middle" style="white-space: pre;" direction="ltr" dominant-baseline="text-before-edge">MP JWT</text></g><g stroke-linecap="round" transform="translate(551.3486778812053 125.3939355184275) rotate(270.0000000000001 122.8463819462454 35.1869696141232)"><path d="M17.59 0 C69.68 1.63, 120.8 0.54, 228.1 0 C239.48 0.38, 248.4 8.44, 245.69 17.59 C243.51 27.67, 242.44 35.44, 245.69 52.78 C243.74 63.65, 238.28 66.81, 228.1 70.37 C142.04 72.56, 58.77 73.22, 17.59 70.37 C3.7 73.01, 3.29 65.3, 0 52.78 C2.35 42.9, -2.04 35.77, 0 17.59 C1.31 2.77, 6.18 1.63, 17.59 0" stroke="none" stroke-width="0" fill="#a5d8ff"></path><path d="M17.59 0 C81.4 0.95, 144.94 -1.19, 228.1 0 M17.59 0 C96.68 0.37, 175.85 -0.29, 228.1 0 M228.1 0 C239.27 0.64, 244.48 4.57, 245.69 17.59 M228.1 0 C241.15 1.44, 244.69 7.23, 245.69 17.59 M245.69 17.59 C245.14 31.55, 243.52 45.74, 245.69 52.78 M245.69 17.59 C244.6 24.74, 245.34 31.83, 245.69 52.78 M245.69 52.78 C245.87 65.87, 237.83 69.17, 228.1 70.37 M245.69 52.78 C246.72 64.6, 241.07 71.57, 228.1 70.37 M228.1 70.37 C173.84 70.92, 121.6 70.32, 17.59 70.37 M228.1 70.37 C183.28 69.73, 137.71 70.27, 17.59 70.37 M17.59 70.37 C4.34 72.06, 0.3 64.04, 0 52.78 M17.59 70.37 C3.89 72.35, -1.25 62.69, 0 52.78 M0 52.78 C0.17 42.14, 0.65 27.36, 0 17.59 M0 52.78 C-0.48 42.4, 0.04 34.89, 0 17.59 M0 17.59 C1.56 6.71, 6.62 -1.67, 17.59 0 M0 17.59 C1.29 4.66, 3.59 -1.66, 17.59 0" stroke="#1971c2" stroke-width="1" fill="none"></path></g><g transform="translate(618.3845129524502 151.0463714306593) rotate(270.0000000000001 55.810546875 9.534533701891405)"><text x="55.810546875" y="0" font-family="Cascadia, Segoe UI Emoji" font-size="15.890889503152435px" fill="#1971c2" text-anchor="middle" style="white-space: pre;" direction="ltr" dominant-baseline="text-before-edge">Apache Camel</text></g><g stroke-linecap="round" transform="translate(643.4307072342922 124.22834021016024) rotate(270.0000000000001 122.8463819462454 35.1869696141232)"><path d="M17.59 0 C93.66 -0.76, 167 2.99, 228.1 0 C242.48 -2.65, 247.87 2.36, 245.69 17.59 C244.48 28.42, 244.67 40.85, 245.69 52.78 C244.43 66.78, 237.78 72.13, 228.1 70.37 C150.64 67.43, 78.02 67.12, 17.59 70.37 C6.96 73.61, 1.9 64.87, 0 52.78 C-1.29 41.17, 3.25 32.08, 0 17.59 C2.91 8.8, 7.66 2.33, 17.59 0" stroke="none" stroke-width="0" fill="#a5d8ff"></path><path d="M17.59 0 C74.39 0.79, 129.62 0.91, 228.1 0 M17.59 0 C73.97 1.41, 132.08 2.18, 228.1 0 M228.1 0 C239.82 -1.58, 244.4 7.29, 245.69 17.59 M228.1 0 C238.61 -2.23, 247.6 5.22, 245.69 17.59 M245.69 17.59 C247.3 32.45, 245.77 46.28, 245.69 52.78 M245.69 17.59 C246.39 30.96, 246.19 44.81, 245.69 52.78 M245.69 52.78 C244.69 63.03, 239.98 69.29, 228.1 70.37 M245.69 52.78 C244.59 64.31, 240.34 71.55, 228.1 70.37 M228.1 70.37 C152.21 69.17, 76.43 72.35, 17.59 70.37 M228.1 70.37 C184.61 69.08, 140.35 68.78, 17.59 70.37 M17.59 70.37 C4.3 69.99, 0.51 63.71, 0 52.78 M17.59 70.37 C5.08 68.35, -1.39 64.23, 0 52.78 M0 52.78 C1.25 39.9, -2.22 28.19, 0 17.59 M0 52.78 C-0.36 41.68, -0.1 29.47, 0 17.59 M0 17.59 C-1.16 6.88, 6.27 -1.55, 17.59 0 M0 17.59 C1.83 4.93, 6.88 0.15, 17.59 0" stroke="#1971c2" stroke-width="1" fill="none"></path></g><g transform="translate(687.2121477742871 149.88077612239204) rotate(270.0000000000001 79.06494140625 9.534533701891405)"><text x="79.06494140625" y="0" font-family="Cascadia, Segoe UI Emoji" font-size="15.890889503152435px" fill="#1971c2" text-anchor="middle" style="white-space: pre;" direction="ltr" dominant-baseline="text-before-edge">OpenAPI Generator</text></g><g stroke-linecap="round" transform="translate(738.6209907427597 126.7537967114049) rotate(270.0000000000001 122.8463819462454 35.1869696141232)"><path d="M17.59 0 C98.02 3.8, 176.89 2.34, 228.1 0 C242.47 0.29, 242.91 3.99, 245.69 17.59 C243.5 29.57, 242.77 39.25, 245.69 52.78 C247.77 64.59, 238.35 70.64, 228.1 70.37 C183.98 74.05, 143.34 74.8, 17.59 70.37 C8.52 69.44, 0.85 66.58, 0 52.78 C3.82 42.25, -2.22 35.89, 0 17.59 C1.02 3.31, 2.79 -0.65, 17.59 0" stroke="none" stroke-width="0" fill="#a5d8ff"></path><path d="M17.59 0 C60.54 1.92, 104.72 -0.79, 228.1 0 M17.59 0 C89.28 -0.99, 160.59 -2.18, 228.1 0 M228.1 0 C240.68 1.73, 244.46 4.84, 245.69 17.59 M228.1 0 C241.08 -0.16, 247.38 4.05, 245.69 17.59 M245.69 17.59 C246.14 27.51, 244.68 38.76, 245.69 52.78 M245.69 17.59 C245.74 24.85, 245.07 31.81, 245.69 52.78 M245.69 52.78 C246.67 66.23, 239.05 71.29, 228.1 70.37 M245.69 52.78 C245.43 66.03, 240.74 71.59, 228.1 70.37 M228.1 70.37 C173.44 70.35, 116.08 70.77, 17.59 70.37 M228.1 70.37 C151.73 70.58, 74.57 70.83, 17.59 70.37 M17.59 70.37 C4.94 71.51, 1.62 66.06, 0 52.78 M17.59 70.37 C4.77 68.39, 0.73 65.51, 0 52.78 M0 52.78 C-1.5 43.31, 1.06 36.17, 0 17.59 M0 52.78 C0.91 41.39, 0.55 29.01, 0 17.59 M0 17.59 C-1.31 6.3, 5.11 -0.33, 17.59 0 M0 17.59 C-1.41 6.99, 6.24 0.81, 17.59 0" stroke="#1971c2" stroke-width="1" fill="none"></path></g><g transform="translate(847.5147359702546 152.4062326236367) rotate(270.0000000000001 13.95263671875 9.534533701891405)"><text x="13.95263671875" y="0" font-family="Cascadia, Segoe UI Emoji" font-size="15.890889503152435px" fill="#1971c2" text-anchor="middle" style="white-space: pre;" direction="ltr" dominant-baseline="text-before-edge">...</text></g></svg>